<svg version="1.1" id="Layer_1" xmlns="http://www.w3.org/2000/svg" xmlns:xlink="http://www.w3.org/1999/xlink" x="0px" y="0px"
	 width="100%" viewBox="0 0 800 800" enable-background="new 0 0 800 800" xml:space="preserve">
<path fill="#000000" opacity="1.000000" stroke="none" 
	d="
M545.000000,801.000000 
	C363.333344,801.000000 182.166672,801.000000 1.000000,801.000000 
	C1.000000,534.333313 1.000000,267.666656 1.000000,1.000000 
	C267.666656,1.000000 534.333313,1.000000 801.000000,1.000000 
	C801.000000,267.666656 801.000000,534.333313 801.000000,801.000000 
	C715.833313,801.000000 630.666687,801.000000 545.000000,801.000000 
M301.923431,245.909363 
	C237.342224,245.909363 172.761017,245.909363 108.261108,245.909363 
	C108.261108,369.137146 108.261108,492.503235 108.261108,616.000854 
	C110.436279,616.000854 112.259460,616.000854 114.082642,616.000854 
	C172.904984,616.000854 231.729523,616.278381 290.548218,615.814453 
	C306.121094,615.691589 321.813934,614.159302 337.207092,611.726624 
	C360.882538,607.985107 382.681488,598.947754 401.102631,583.261719 
	C426.710876,561.455688 436.119629,533.221741 432.931641,500.180389 
	C429.443512,464.028290 404.856018,433.509796 370.164185,422.698425 
	C366.568878,421.577972 362.944611,420.550537 358.055206,419.100861 
	C379.713867,412.887543 396.419312,401.824493 408.247009,384.000336 
	C420.092468,366.149353 422.845459,346.298523 420.451294,325.434387 
	C453.605408,325.434387 486.194885,325.434387 519.304199,325.434387 
	C519.304199,422.405884 519.304199,519.113037 519.304199,615.768066 
	C551.758179,615.768066 583.690430,615.768066 616.119385,615.768066 
	C616.119385,518.836304 616.119385,422.136078 616.119385,324.989624 
	C653.333557,324.989624 690.051758,324.989624 726.639893,324.989624 
	C726.639893,298.149780 726.639893,271.759796 726.639893,245.162766 
	C724.471619,245.162766 722.655884,245.162781 720.840149,245.162781 
	C649.186890,245.162781 577.533569,245.164093 505.880280,245.155838 
	C503.884521,245.155609 501.888733,245.052811 500.122131,244.353104 
	C513.724243,227.474503 526.541565,210.115234 535.946899,190.405624 
	C546.932007,167.385559 549.094727,144.372665 537.989868,120.705925 
	C526.855530,96.976456 509.101837,81.319855 482.815247,78.310516 
	C450.386169,74.597954 426.052185,88.719185 409.313477,116.258598 
	C406.018066,121.680359 403.710907,127.702812 401.511230,132.276993 
	C395.722382,122.995399 390.597076,112.408226 383.345062,103.565140 
	C353.832886,67.577988 299.399200,69.208626 271.974945,106.694710 
	C261.177917,121.453117 255.605942,138.304504 256.582733,156.760651 
	C257.362183,171.488922 263.042236,184.833389 269.718353,197.789795 
	C278.699249,215.219116 290.732086,230.530884 301.923431,245.909363 
M668.363892,642.538696 
	C668.363892,640.128845 668.363892,637.719055 668.363892,635.309204 
	C667.823914,635.052002 667.283936,634.794800 666.743958,634.537598 
	C664.599915,637.069092 662.455872,639.600586 660.404663,642.022461 
	C658.057495,639.473572 655.795776,637.017456 653.534058,634.561279 
	C653.141968,634.855957 652.749817,635.150696 652.357727,635.445374 
	C652.357727,640.173767 652.357727,644.902161 652.357727,649.971252 
	C658.366028,650.346741 654.136414,644.815796 656.732788,643.014771 
	C659.425415,649.112610 662.028259,646.520813 664.754700,641.478455 
	C664.922913,645.189209 665.030823,647.569885 665.149414,650.186646 
	C670.598450,649.630554 667.491516,645.648804 668.363892,642.538696 
M457.031067,638.440857 
	C456.095917,639.705750 455.160767,640.970703 454.250885,642.201416 
	C451.743622,639.454468 449.518799,637.017029 447.294006,634.579529 
	C446.920044,634.883850 446.546112,635.188171 446.172180,635.492432 
	C446.172180,640.276001 446.172180,645.059631 446.172180,650.039429 
	C452.019928,650.004761 447.782990,644.912170 450.252716,642.952026 
	C452.384796,647.479065 455.162994,647.288330 457.753113,643.556396 
	C460.330902,645.159363 456.213623,650.292175 462.071594,649.911194 
	C462.071594,646.470215 462.071594,643.164062 462.071594,639.857910 
	C462.071594,638.384644 462.071594,636.911377 462.071594,633.872742 
	C459.870972,635.764221 458.666321,636.799561 457.031067,638.440857 
M601.258423,641.688232 
	C601.103760,642.502625 600.650635,643.933716 600.844604,644.027588 
	C601.837769,644.508179 602.997681,644.644165 604.099304,644.900574 
	C604.014526,645.487732 603.929749,646.074890 603.844971,646.661987 
	C601.883301,646.395081 599.184326,646.798279 598.164185,645.675781 
	C597.110962,644.516846 596.913025,641.344421 597.798096,640.046082 
	C598.523193,638.982422 601.390259,639.174561 603.304016,639.193359 
	C604.707397,639.207214 606.104675,639.842163 608.187317,640.375000 
	C604.904541,635.129395 601.310486,633.765625 597.413513,635.791260 
	C593.659302,637.742615 592.298096,640.949097 593.407227,644.970764 
	C594.470520,648.826294 598.288940,650.957214 602.452393,650.115051 
	C606.874390,649.220520 608.634216,646.365417 608.234558,641.641418 
	C605.997192,641.641418 604.022400,641.641418 601.258423,641.688232 
M397.809753,642.955505 
	C395.238159,647.484619 396.747284,650.328003 401.779785,650.248413 
	C404.366943,650.207458 406.949768,649.894043 409.608734,649.698242 
	C408.753723,646.973694 407.961914,644.450623 407.170135,641.927551 
	C406.423676,640.101074 406.695007,637.598999 405.574951,636.429932 
	C404.509094,635.317444 401.796112,634.924316 400.148682,635.399170 
	C396.229614,636.528748 397.646881,639.666443 397.809753,642.955505 
M325.079315,646.928467 
	C323.482361,645.818542 321.415894,644.999390 320.476196,643.482300 
	C319.966034,642.658691 321.113007,639.604309 321.970123,639.390442 
	C323.721252,638.953552 325.794983,639.690002 327.709778,640.073486 
	C328.872192,640.306396 329.985748,640.783020 331.667297,641.326721 
	C330.209869,636.047913 326.953522,634.456543 322.785889,635.161987 
	C318.673340,635.857971 316.515930,638.767639 316.695343,643.005310 
	C316.863342,646.972290 318.927185,649.664490 322.969055,650.134277 
	C327.122559,650.617004 330.387665,649.264343 331.925079,643.109558 
	C329.156067,644.770264 327.499756,645.763611 325.079315,646.928467 
M349.827454,643.169922 
	C348.982422,645.303711 348.137421,647.437561 347.292389,649.571350 
	C352.183594,646.798401 356.985779,647.619080 362.510559,650.723206 
	C361.016296,646.997742 360.245514,644.628174 359.136383,642.429199 
	C357.872406,639.923157 356.306763,637.569214 354.872223,635.149170 
	C353.263306,637.577759 351.654388,640.006348 349.827454,643.169922 
M486.290253,635.160889 
	C485.261169,635.763184 483.690094,636.123840 483.295563,637.008972 
	C481.456604,641.134521 479.942810,645.404907 478.312714,649.623535 
	C478.464874,650.320435 478.617004,651.017334 478.769135,651.714172 
	C483.351959,645.399536 488.090027,647.877197 493.852631,650.970459 
	C491.104553,644.723999 489.055237,640.065857 486.290253,635.160889 
M576.703308,646.670837 
	C575.465210,643.603821 574.348328,640.478577 572.920288,637.502625 
	C572.448853,636.520264 571.259827,635.520935 570.234070,635.302124 
	C569.625977,635.172485 568.351013,636.402344 567.969604,637.279175 
	C566.206909,641.331116 564.652405,645.473511 562.866699,649.978638 
	C564.113159,649.978638 565.213806,650.321472 565.677429,649.923096 
	C568.709229,647.317505 571.550598,645.906311 574.667297,649.868347 
	C574.997375,650.287964 576.524170,649.766174 577.495789,649.681152 
	C577.315857,648.918762 577.135864,648.156311 576.703308,646.670837 
M518.666382,642.951721 
	C516.403809,641.852417 514.141174,640.753174 511.878601,639.653870 
	C512.031982,639.152222 512.185364,638.650574 512.338745,638.148926 
	C514.721619,638.745728 517.104553,639.342529 519.809998,640.020081 
	C518.957153,635.660828 516.224548,634.452148 513.058655,635.207458 
	C511.367889,635.610901 510.074219,637.678528 508.601349,638.995056 
	C510.297791,640.678040 511.951355,642.407654 513.709656,644.023315 
	C514.532288,644.779175 515.557129,645.315002 516.490356,645.950623 
	C516.266785,646.396118 516.043213,646.841553 515.819641,647.287048 
	C513.514526,646.584717 511.209442,645.882324 508.428986,645.035156 
	C509.437317,650.590210 513.010498,650.749817 516.499512,649.954041 
	C519.847168,649.190613 520.994812,646.796448 518.666382,642.951721 
M547.832153,645.605957 
	C545.195862,643.361816 542.559631,641.117676 539.923340,638.873596 
	C540.066833,638.564758 540.210388,638.255920 540.353943,637.947083 
	C542.576294,638.635498 544.798645,639.323914 547.021057,640.012329 
	C547.304199,639.306519 547.587280,638.600708 547.870422,637.894897 
	C545.757812,636.928345 543.690247,635.360840 541.517395,635.197876 
	C539.964355,635.081421 537.308350,636.488037 536.801575,637.837463 
	C534.317627,644.451294 542.468079,642.577576 544.881714,647.515564 
	C541.293518,646.530273 538.901428,645.873413 536.509277,645.216614 
	C536.229919,645.752319 535.950500,646.288025 535.671082,646.823730 
	C537.530457,647.950317 539.265564,649.604553 541.278687,650.078674 
	C544.229187,650.773682 546.951355,649.898438 547.832153,645.605957 
M246.575180,644.049866 
	C247.966675,643.939636 249.358170,643.829468 250.749664,643.719238 
	C250.845306,643.258484 250.940948,642.797729 251.036575,642.336975 
	C248.950500,641.449158 246.864426,640.561279 244.778351,639.673462 
	C244.987228,639.257812 245.196106,638.842102 245.404999,638.426392 
	C247.299484,638.237549 249.193985,638.048645 252.377457,637.731262 
	C248.524246,633.651855 244.969055,635.586975 241.531952,635.364441 
	C241.531952,640.380981 241.531952,644.977112 241.531952,649.729248 
	C244.959930,649.729248 248.168274,649.729248 251.376617,649.729248 
	C251.495285,649.217468 251.613937,648.705688 251.732590,648.193909 
	C250.399979,647.802795 249.086304,647.186768 247.730377,647.072510 
	C245.636765,646.896118 243.750076,646.899719 246.575180,644.049866 
M191.115097,644.285522 
	C191.989578,644.671936 192.864075,645.058350 193.738556,645.444763 
	C193.330933,646.037292 192.923309,646.629822 192.515686,647.222351 
	C190.117111,646.535645 187.718536,645.848938 184.854980,645.029114 
	C185.567642,649.507629 188.167770,650.517578 191.135284,650.138672 
	C192.872559,649.916809 195.465240,648.856628 195.938843,647.546570 
	C198.318359,640.964539 190.557816,642.553467 187.668259,637.880249 
	C191.265823,638.773254 193.561768,639.343140 196.313080,640.026123 
	C195.295822,635.406189 192.441864,634.425598 189.356201,635.230347 
	C187.684570,635.666321 186.455811,637.800415 185.027237,639.168457 
	C186.802902,640.805725 188.578568,642.442993 191.115097,644.285522 
M629.528564,635.132690 
	C628.109497,635.234192 626.690430,635.335632 625.349976,635.431519 
	C625.349976,640.521057 625.349976,645.113281 625.349976,649.834961 
	C628.708191,649.834961 631.802002,649.834961 634.895874,649.834961 
	C635.056030,649.326477 635.216187,648.817993 635.376404,648.309509 
	C633.250000,647.648071 631.123596,646.986572 628.997192,646.325073 
	C628.824646,645.916565 628.652100,645.507996 628.479553,645.099426 
	C630.359558,644.566040 632.239502,644.032715 634.119507,643.499329 
	C634.300293,643.091003 634.481079,642.682617 634.661865,642.274292 
	C632.706177,641.598389 630.750488,640.922546 628.794800,640.246704 
	C628.721619,639.865479 628.648376,639.484314 628.575134,639.103088 
	C630.648743,638.608948 632.722290,638.114746 634.795898,637.620605 
	C634.935547,637.167908 635.075195,636.715271 635.214844,636.262634 
	C633.622620,635.885986 632.030334,635.509277 629.528564,635.132690 
M158.971115,638.716187 
	C158.971115,642.461243 158.971115,646.206299 158.971115,649.721680 
	C162.734375,649.721680 165.819916,649.721680 168.905472,649.721680 
	C169.031403,649.277893 169.157349,648.834106 169.283279,648.390320 
	C166.892639,647.480164 164.501984,646.570007 162.111343,645.659851 
	C162.277573,645.203735 162.443802,644.747620 162.610031,644.291443 
	C164.378281,644.117615 166.146545,643.943787 167.914795,643.769958 
	C168.075928,643.305786 168.237045,642.841614 168.398163,642.377441 
	C166.436966,641.663818 164.475754,640.950195 162.514557,640.236572 
	C162.407089,639.872559 162.299637,639.508606 162.192169,639.144592 
	C164.371902,638.592712 166.551620,638.040894 168.731354,637.489075 
	C168.822083,636.999878 168.912827,636.510620 169.003555,636.021423 
	C166.652557,635.733826 164.282272,635.145813 161.959320,635.294922 
	C160.914764,635.362061 159.964752,636.901733 158.971115,638.716187 
M271.957642,641.699951 
	C271.957642,644.446533 271.957642,647.193115 271.957642,651.151367 
	C277.821442,647.636353 273.849701,642.403076 275.263977,640.231934 
	C277.522156,638.571228 278.778595,637.647217 280.035065,636.723206 
	C278.556793,636.190369 277.114990,635.438049 275.590302,635.184875 
	C273.978577,634.917175 272.250458,634.912231 270.643951,635.194824 
	C269.440613,635.406555 268.349487,636.256042 267.208435,636.821594 
	C268.162079,637.427551 269.180695,637.953918 270.049286,638.663940 
	C270.775970,639.257935 271.327118,640.066589 271.957642,641.699951 
M215.869507,638.684448 
	C216.420593,642.420959 216.971664,646.157532 217.655914,650.796936 
	C222.883636,647.728882 218.847824,642.463623 220.202087,640.338074 
	C222.609909,638.584167 224.000626,637.571167 225.391357,636.558105 
	C225.125626,636.081482 224.859894,635.604797 224.594147,635.128113 
	C221.301498,635.128113 218.002686,635.018372 214.720337,635.202271 
	C213.856720,635.250732 213.044052,636.207947 212.207962,636.747925 
	C213.138504,637.376831 214.069046,638.005737 215.869507,638.684448 
M296.277740,644.382141 
	C296.997009,646.411926 294.355438,650.538208 299.779968,649.893188 
	C299.779968,644.971497 299.779968,640.210022 299.779968,635.448547 
	C299.434967,635.203247 299.089935,634.957886 298.744934,634.712585 
	C297.925781,635.630432 296.604431,636.447754 296.396423,637.487854 
	C296.012299,639.408203 296.281036,641.459167 296.277740,644.382141 
z"/>
<path fill="#FEFEFE" opacity="1.000000" stroke="none" 
	d="
M499.892975,244.997833 
	C501.888733,245.052811 503.884521,245.155609 505.880280,245.155838 
	C577.533569,245.164093 649.186890,245.162781 720.840149,245.162781 
	C722.655884,245.162781 724.471619,245.162766 726.639893,245.162766 
	C726.639893,271.759796 726.639893,298.149780 726.639893,324.989624 
	C690.051758,324.989624 653.333557,324.989624 616.119385,324.989624 
	C616.119385,422.136078 616.119385,518.836304 616.119385,615.768066 
	C583.690430,615.768066 551.758179,615.768066 519.304199,615.768066 
	C519.304199,519.113037 519.304199,422.405884 519.304199,325.434387 
	C486.194885,325.434387 453.605408,325.434387 420.451294,325.434387 
	C422.845459,346.298523 420.092468,366.149353 408.247009,384.000336 
	C396.419312,401.824493 379.713867,412.887543 358.055206,419.100861 
	C362.944611,420.550537 366.568878,421.577972 370.164185,422.698425 
	C404.856018,433.509796 429.443512,464.028290 432.931641,500.180389 
	C436.119629,533.221741 426.710876,561.455688 401.102631,583.261719 
	C382.681488,598.947754 360.882538,607.985107 337.207092,611.726624 
	C321.813934,614.159302 306.121094,615.691589 290.548218,615.814453 
	C231.729523,616.278381 172.904984,616.000854 114.082642,616.000854 
	C112.259460,616.000854 110.436279,616.000854 108.261108,616.000854 
	C108.261108,492.503235 108.261108,369.137146 108.261108,245.909363 
	C172.761017,245.909363 237.342224,245.909363 302.637878,246.081512 
	C332.614410,280.252106 365.495819,310.380005 401.832886,338.877930 
	C423.724884,319.095459 445.716492,299.809265 466.992462,279.763489 
	C478.586090,268.840179 488.965759,256.628448 499.892975,244.997833 
M278.421173,463.166870 
	C253.967072,463.166870 229.512970,463.166870 204.906891,463.166870 
	C204.906891,489.354706 204.906891,515.050476 204.906891,540.735107 
	C231.527069,540.735107 257.838379,541.003784 284.139862,540.611206 
	C295.681458,540.439026 306.802826,537.700745 316.960876,531.617065 
	C339.284851,518.247131 339.235229,485.110016 316.829803,471.866119 
	C305.229370,465.009064 292.495300,463.383301 278.421173,463.166870 
M243.499924,392.833740 
	C254.324875,392.833710 265.198303,393.464081 275.959686,392.637024 
	C284.789246,391.958435 294.005951,390.862549 302.139496,387.646332 
	C323.180664,379.326080 328.729797,348.412842 312.859589,332.298859 
	C304.151855,323.457336 293.232849,320.934692 281.455841,320.905396 
	C257.143005,320.844940 232.829681,320.953552 208.516617,321.010742 
	C207.243439,321.013763 205.970642,321.184845 204.868561,321.265259 
	C204.868561,345.213409 204.868561,368.805817 204.868561,392.833740 
	C217.592377,392.833740 230.046143,392.833740 243.499924,392.833740 
z"/>
<path fill="#C6302C" opacity="1.000000" stroke="none" 
	d="
M500.007568,244.675476 
	C488.965759,256.628448 478.586090,268.840179 466.992462,279.763489 
	C445.716492,299.809265 423.724884,319.095459 401.832886,338.877930 
	C365.495819,310.380005 332.614410,280.252106 303.069641,246.044525 
	C290.732086,230.530884 278.699249,215.219116 269.718353,197.789795 
	C263.042236,184.833389 257.362183,171.488922 256.582733,156.760651 
	C255.605942,138.304504 261.177917,121.453117 271.974945,106.694710 
	C299.399200,69.208626 353.832886,67.577988 383.345062,103.565140 
	C390.597076,112.408226 395.722382,122.995399 401.511230,132.276993 
	C403.710907,127.702812 406.018066,121.680359 409.313477,116.258598 
	C426.052185,88.719185 450.386169,74.597954 482.815247,78.310516 
	C509.101837,81.319855 526.855530,96.976456 537.989868,120.705925 
	C549.094727,144.372665 546.932007,167.385559 535.946899,190.405624 
	C526.541565,210.115234 513.724243,227.474503 500.007568,244.675476 
z"/>
<path fill="#EAEAEA" opacity="1.000000" stroke="none" 
	d="
M668.363892,642.991882 
	C667.491516,645.648804 670.598450,649.630554 665.149414,650.186646 
	C665.030823,647.569885 664.922913,645.189209 664.754700,641.478455 
	C662.028259,646.520813 659.425415,649.112610 656.732788,643.014771 
	C654.136414,644.815796 658.366028,650.346741 652.357727,649.971252 
	C652.357727,644.902161 652.357727,640.173767 652.357727,635.445374 
	C652.749817,635.150696 653.141968,634.855957 653.534058,634.561279 
	C655.795776,637.017456 658.057495,639.473572 660.404663,642.022461 
	C662.455872,639.600586 664.599915,637.069092 666.743958,634.537598 
	C667.283936,634.794800 667.823914,635.052002 668.363892,635.309204 
	C668.363892,637.719055 668.363892,640.128845 668.363892,642.991882 
z"/>
<path fill="#F5F5F5" opacity="1.000000" stroke="none" 
	d="
M457.246399,638.137939 
	C458.666321,636.799561 459.870972,635.764221 462.071594,633.872742 
	C462.071594,636.911377 462.071594,638.384644 462.071594,639.857910 
	C462.071594,643.164062 462.071594,646.470215 462.071594,649.911194 
	C456.213623,650.292175 460.330902,645.159363 457.753113,643.556396 
	C455.162994,647.288330 452.384796,647.479065 450.252716,642.952026 
	C447.782990,644.912170 452.019928,650.004761 446.172180,650.039429 
	C446.172180,645.059631 446.172180,640.276001 446.172180,635.492432 
	C446.546112,635.188171 446.920044,634.883850 447.294006,634.579529 
	C449.518799,637.017029 451.743622,639.454468 454.250885,642.201416 
	C455.160767,640.970703 456.095917,639.705750 457.246399,638.137939 
z"/>
<path fill="#EAEAEA" opacity="1.000000" stroke="none" 
	d="
M601.653015,641.664795 
	C604.022400,641.641418 605.997192,641.641418 608.234558,641.641418 
	C608.634216,646.365417 606.874390,649.220520 602.452393,650.115051 
	C598.288940,650.957214 594.470520,648.826294 593.407227,644.970764 
	C592.298096,640.949097 593.659302,637.742615 597.413513,635.791260 
	C601.310486,633.765625 604.904541,635.129395 608.187317,640.375000 
	C606.104675,639.842163 604.707397,639.207214 603.304016,639.193359 
	C601.390259,639.174561 598.523193,638.982422 597.798096,640.046082 
	C596.913025,641.344421 597.110962,644.516846 598.164185,645.675781 
	C599.184326,646.798279 601.883301,646.395081 603.844971,646.661987 
	C603.929749,646.074890 604.014526,645.487732 604.099304,644.900574 
	C602.997681,644.644165 601.837769,644.508179 600.844604,644.027588 
	C600.650635,643.933716 601.103760,642.502625 601.653015,641.664795 
z"/>
<path fill="#E5E5E5" opacity="1.000000" stroke="none" 
	d="
M398.057526,642.652100 
	C397.646881,639.666443 396.229614,636.528748 400.148682,635.399170 
	C401.796112,634.924316 404.509094,635.317444 405.574951,636.429932 
	C406.695007,637.598999 406.423676,640.101074 407.170135,641.927551 
	C407.961914,644.450623 408.753723,646.973694 409.608734,649.698242 
	C406.949768,649.894043 404.366943,650.207458 401.779785,650.248413 
	C396.747284,650.328003 395.238159,647.484619 398.057526,642.652100 
z"/>
<path fill="#EAEAEA" opacity="1.000000" stroke="none" 
	d="
M325.461395,646.842712 
	C327.499756,645.763611 329.156067,644.770264 331.925079,643.109558 
	C330.387665,649.264343 327.122559,650.617004 322.969055,650.134277 
	C318.927185,649.664490 316.863342,646.972290 316.695343,643.005310 
	C316.515930,638.767639 318.673340,635.857971 322.785889,635.161987 
	C326.953522,634.456543 330.209869,636.047913 331.667297,641.326721 
	C329.985748,640.783020 328.872192,640.306396 327.709778,640.073486 
	C325.794983,639.690002 323.721252,638.953552 321.970123,639.390442 
	C321.113007,639.604309 319.966034,642.658691 320.476196,643.482300 
	C321.415894,644.999390 323.482361,645.818542 325.461395,646.842712 
z"/>
<path fill="#E6E6E6" opacity="1.000000" stroke="none" 
	d="
M349.936462,642.802429 
	C351.654388,640.006348 353.263306,637.577759 354.872223,635.149170 
	C356.306763,637.569214 357.872406,639.923157 359.136383,642.429199 
	C360.245514,644.628174 361.016296,646.997742 362.510559,650.723206 
	C356.985779,647.619080 352.183594,646.798401 347.292389,649.571350 
	C348.137421,647.437561 348.982422,645.303711 349.936462,642.802429 
z"/>
<path fill="#E6E6E6" opacity="1.000000" stroke="none" 
	d="
M486.648071,635.284302 
	C489.055237,640.065857 491.104553,644.723999 493.852631,650.970459 
	C488.090027,647.877197 483.351959,645.399536 478.769135,651.714172 
	C478.617004,651.017334 478.464874,650.320435 478.312714,649.623535 
	C479.942810,645.404907 481.456604,641.134521 483.295563,637.008972 
	C483.690094,636.123840 485.261169,635.763184 486.648071,635.284302 
z"/>
<path fill="#E8E8E8" opacity="1.000000" stroke="none" 
	d="
M576.829590,647.032349 
	C577.135864,648.156311 577.315857,648.918762 577.495789,649.681152 
	C576.524170,649.766174 574.997375,650.287964 574.667297,649.868347 
	C571.550598,645.906311 568.709229,647.317505 565.677429,649.923096 
	C565.213806,650.321472 564.113159,649.978638 562.866699,649.978638 
	C564.652405,645.473511 566.206909,641.331116 567.969604,637.279175 
	C568.351013,636.402344 569.625977,635.172485 570.234070,635.302124 
	C571.259827,635.520935 572.448853,636.520264 572.920288,637.502625 
	C574.348328,640.478577 575.465210,643.603821 576.829590,647.032349 
z"/>
<path fill="#E6E6E6" opacity="1.000000" stroke="none" 
	d="
M518.918335,643.236694 
	C520.994812,646.796448 519.847168,649.190613 516.499512,649.954041 
	C513.010498,650.749817 509.437317,650.590210 508.428986,645.035156 
	C511.209442,645.882324 513.514526,646.584717 515.819641,647.287048 
	C516.043213,646.841553 516.266785,646.396118 516.490356,645.950623 
	C515.557129,645.315002 514.532288,644.779175 513.709656,644.023315 
	C511.951355,642.407654 510.297791,640.678040 508.601318,638.994995 
	C510.074219,637.678528 511.367889,635.610901 513.058655,635.207458 
	C516.224548,634.452148 518.957153,635.660828 519.809998,640.020081 
	C517.104553,639.342529 514.721619,638.745728 512.338745,638.148926 
	C512.185364,638.650574 512.031982,639.152222 511.878601,639.653870 
	C514.141174,640.753174 516.403809,641.852417 518.918335,643.236694 
z"/>
<path fill="#E5E5E5" opacity="1.000000" stroke="none" 
	d="
M547.815552,645.975464 
	C546.951355,649.898438 544.229187,650.773682 541.278687,650.078674 
	C539.265564,649.604553 537.530457,647.950317 535.671082,646.823730 
	C535.950500,646.288025 536.229919,645.752319 536.509277,645.216614 
	C538.901428,645.873413 541.293518,646.530273 544.881714,647.515564 
	C542.468079,642.577576 534.317627,644.451294 536.801575,637.837463 
	C537.308350,636.488037 539.964355,635.081421 541.517395,635.197876 
	C543.690247,635.360840 545.757812,636.928345 547.870422,637.894897 
	C547.587280,638.600708 547.304199,639.306519 547.021057,640.012329 
	C544.798645,639.323914 542.576294,638.635498 540.353943,637.947083 
	C540.210388,638.255920 540.066833,638.564758 539.923340,638.873596 
	C542.559631,641.117676 545.195862,643.361816 547.815552,645.975464 
z"/>
<path fill="#E2E2E2" opacity="1.000000" stroke="none" 
	d="
M246.143738,644.075134 
	C243.750076,646.899719 245.636765,646.896118 247.730377,647.072510 
	C249.086304,647.186768 250.399979,647.802795 251.732590,648.193909 
	C251.613937,648.705688 251.495285,649.217468 251.376617,649.729248 
	C248.168274,649.729248 244.959930,649.729248 241.531952,649.729248 
	C241.531952,644.977112 241.531952,640.380981 241.531952,635.364441 
	C244.969055,635.586975 248.524246,633.651855 252.377457,637.731262 
	C249.193985,638.048645 247.299484,638.237549 245.404999,638.426392 
	C245.196106,638.842102 244.987228,639.257812 244.778351,639.673462 
	C246.864426,640.561279 248.950500,641.449158 251.036575,642.336975 
	C250.940948,642.797729 250.845306,643.258484 250.749664,643.719238 
	C249.358170,643.829468 247.966675,643.939636 246.143738,644.075134 
z"/>
<path fill="#E6E6E6" opacity="1.000000" stroke="none" 
	d="
M190.734665,644.182861 
	C188.578568,642.442993 186.802902,640.805725 185.027252,639.168457 
	C186.455811,637.800415 187.684570,635.666321 189.356201,635.230347 
	C192.441864,634.425598 195.295822,635.406189 196.313080,640.026123 
	C193.561768,639.343140 191.265823,638.773254 187.668259,637.880249 
	C190.557816,642.553467 198.318359,640.964539 195.938843,647.546570 
	C195.465240,648.856628 192.872559,649.916809 191.135284,650.138672 
	C188.167770,650.517578 185.567642,649.507629 184.854980,645.029114 
	C187.718536,645.848938 190.117111,646.535645 192.515686,647.222351 
	C192.923309,646.629822 193.330933,646.037292 193.738556,645.444763 
	C192.864075,645.058350 191.989578,644.671936 190.734665,644.182861 
z"/>
<path fill="#E6E6E6" opacity="1.000000" stroke="none" 
	d="
M629.983337,635.132690 
	C632.030334,635.509277 633.622620,635.885986 635.214844,636.262634 
	C635.075195,636.715271 634.935547,637.167908 634.795898,637.620605 
	C632.722290,638.114746 630.648743,638.608948 628.575134,639.103088 
	C628.648376,639.484314 628.721619,639.865479 628.794800,640.246704 
	C630.750488,640.922546 632.706177,641.598389 634.661865,642.274292 
	C634.481079,642.682617 634.300293,643.091003 634.119507,643.499329 
	C632.239502,644.032715 630.359558,644.566040 628.479553,645.099426 
	C628.652100,645.507996 628.824646,645.916565 628.997192,646.325073 
	C631.123596,646.986572 633.250000,647.648071 635.376404,648.309509 
	C635.216187,648.817993 635.056030,649.326477 634.895874,649.834961 
	C631.802002,649.834961 628.708191,649.834961 625.349976,649.834961 
	C625.349976,645.113281 625.349976,640.521057 625.349976,635.431519 
	C626.690430,635.335632 628.109497,635.234192 629.983337,635.132690 
z"/>
<path fill="#EFEFEF" opacity="1.000000" stroke="none" 
	d="
M158.971481,638.244690 
	C159.964752,636.901733 160.914764,635.362061 161.959320,635.294922 
	C164.282272,635.145813 166.652557,635.733826 169.003555,636.021423 
	C168.912827,636.510620 168.822083,636.999878 168.731354,637.489075 
	C166.551620,638.040894 164.371902,638.592712 162.192169,639.144592 
	C162.299637,639.508606 162.407089,639.872559 162.514557,640.236572 
	C164.475754,640.950195 166.436966,641.663818 168.398163,642.377441 
	C168.237045,642.841614 168.075928,643.305786 167.914795,643.769958 
	C166.146545,643.943787 164.378281,644.117615 162.610031,644.291443 
	C162.443802,644.747620 162.277573,645.203735 162.111343,645.659851 
	C164.501984,646.570007 166.892639,647.480164 169.283279,648.390320 
	C169.157349,648.834106 169.031403,649.277893 168.905472,649.721680 
	C165.819916,649.721680 162.734375,649.721680 158.971115,649.721680 
	C158.971115,646.206299 158.971115,642.461243 158.971481,638.244690 
z"/>
<path fill="#E3E3E3" opacity="1.000000" stroke="none" 
	d="
M271.956818,641.240112 
	C271.327118,640.066589 270.775970,639.257935 270.049286,638.663940 
	C269.180695,637.953918 268.162079,637.427551 267.208435,636.821533 
	C268.349487,636.256042 269.440613,635.406555 270.643951,635.194824 
	C272.250458,634.912231 273.978577,634.917175 275.590302,635.184875 
	C277.114990,635.438049 278.556793,636.190369 280.035065,636.723206 
	C278.778595,637.647217 277.522156,638.571228 275.263977,640.231934 
	C273.849701,642.403076 277.821442,647.636353 271.957642,651.151367 
	C271.957642,647.193115 271.957642,644.446533 271.956818,641.240112 
z"/>
<path fill="#E3E3E3" opacity="1.000000" stroke="none" 
	d="
M215.434540,638.659546 
	C214.069046,638.005737 213.138504,637.376831 212.207977,636.747925 
	C213.044052,636.207947 213.856720,635.250732 214.720337,635.202271 
	C218.002686,635.018372 221.301498,635.128113 224.594147,635.128113 
	C224.859894,635.604797 225.125626,636.081482 225.391357,636.558105 
	C224.000626,637.571167 222.609909,638.584167 220.202087,640.338074 
	C218.847824,642.463623 222.883636,647.728882 217.655914,650.796936 
	C216.971664,646.157532 216.420593,642.420959 215.434540,638.659546 
z"/>
<path fill="#D7D7D7" opacity="1.000000" stroke="none" 
	d="
M296.277771,643.918945 
	C296.281036,641.459167 296.012299,639.408203 296.396423,637.487854 
	C296.604431,636.447754 297.925781,635.630432 298.744934,634.712585 
	C299.089935,634.957886 299.434967,635.203247 299.779968,635.448547 
	C299.779968,640.210022 299.779968,644.971497 299.779968,649.893188 
	C294.355438,650.538208 296.997009,646.411926 296.277771,643.918945 
z"/>
<path fill="#010101" opacity="1.000000" stroke="none" 
	d="
M278.907562,463.167267 
	C292.495300,463.383301 305.229370,465.009064 316.829803,471.866119 
	C339.235229,485.110016 339.284851,518.247131 316.960876,531.617065 
	C306.802826,537.700745 295.681458,540.439026 284.139862,540.611206 
	C257.838379,541.003784 231.527069,540.735107 204.906891,540.735107 
	C204.906891,515.050476 204.906891,489.354706 204.906891,463.166870 
	C229.512970,463.166870 253.967072,463.166870 278.907562,463.167267 
z"/>
<path fill="#010101" opacity="1.000000" stroke="none" 
	d="
M242.999908,392.833740 
	C230.046143,392.833740 217.592377,392.833740 204.868561,392.833740 
	C204.868561,368.805817 204.868561,345.213409 204.868561,321.265259 
	C205.970642,321.184845 207.243439,321.013763 208.516617,321.010742 
	C232.829681,320.953552 257.143005,320.844940 281.455841,320.905396 
	C293.232849,320.934692 304.151855,323.457336 312.859589,332.298859 
	C328.729797,348.412842 323.180664,379.326080 302.139496,387.646332 
	C294.005951,390.862549 284.789246,391.958435 275.959686,392.637024 
	C265.198303,393.464081 254.324875,392.833710 242.999908,392.833740 
z"/>
</svg>